# xmcd
#
# Track frame offsets:
#	183
#	11203
#	23065
#	35013
#	46163
#	56820
#	70068
#	84015
#	94773
#	107143
#	119720
#	127290
#	138395
#	147465
#	163478
#
# Disc length: 2390
#
# Revision: 3
# Processed by: cddbd v1.5.1PL0 Copyright (c) Steve Scherf et al.
# Submitted via: audiograbber 1.81.03
# Normalized: r2:DSETVAR1
#
DISCID=df09540f
DTITLE=Various Artist - Christmas With Soul
DYEAR=1993
DGENRE=Folk
TTITLE0=Platters, The - Please Come Home For Christmas
TTITLE1=Louis Armstrong - White Christmas
TTITLE2=Johnny Adams - The Little Boy That Santa Forgot
TTITLE3=Brook Benton - You're All I Want For Christmas
TTITLE4=Moonglows, The - Hey Santa Claus
TTITLE5=Chuck Berry - Merry Christmas Baby
TTITLE6=Johnny Adams - Lonesome Christmas
TTITLE7=Biship Caines - Rudholph The Red-Nosed Reindeer
TTITLE8=Ramsey Lewis Trio - Christmas Blues
TTITLE9=Swan Silvertones - Go Tell It On The Mountain
TTITLE10=Caravans - God Rest Ye Merry Gentlemen
TTITLE11=Brook Benton - This Time Of the Year
TTITLE12=Platters, The - Blue Christmas
TTITLE13=Johnny Adams - The Christmas Song
TTITLE14=Charles Brown - I'll Be Home For Christmas
EXTD=
EXTT0=The Platters\n
EXTT1=Loise Armstrong\n
EXTT2=Johnny Adams\n
EXTT3=Brook Benton\n
EXTT4=The Moonglows\n
EXTT5=Chuck Berry\n
EXTT6=Johnny Adams\n
EXTT7=Bishop Caines\n
EXTT8=Ramsey Lewis Trio\n
EXTT9=Swan Silvertones\n
EXTT10=Caravans\n
EXTT11=Brook Benton\n
EXTT12=The Platters\n
EXTT13=Johnny Adams\n
EXTT14=Charles Brown\n
PLAYORDER=
